<?xml version="1.0" encoding="UTF-8"?>
<svg version="1.1" xmlns="http://www.w3.org/2000/svg" width="1024" height="1024">
<path d="M0 0 C0.60714844 0.46535156 1.21429687 0.93070312 1.83984375 1.41015625 C9.57945903 7.42985702 15.63874251 16.27748501 20 25 C20 25.66 20 26.32 20 27 C16.16635063 26.37381408 12.97504782 25.21328678 9.4375 23.625 C-7.60877961 16.52238349 -27.03332887 14.79160511 -44.55859375 21.5234375 C-63.62059122 29.70213789 -78.12612632 43.18450202 -86.44140625 62.31640625 C-94.89655463 84.50170603 -95.56892735 107.96451236 -86 130 C-72.73637929 157.68428067 -46.08842261 174.54269725 -18 184.6875 C15.33436671 195.24994702 54.73440732 196.85938281 89 190 C90.46518066 189.71793701 90.46518066 189.71793701 91.95996094 189.43017578 C107.58195621 186.33190376 121.93357214 181.23244604 136.56396484 175.00585938 C139.33475695 173.86177604 142.13414507 172.87879708 145 172 C146.18378809 232.04436266 128.01867224 287.51496109 87 332 C86.2471875 332.8559375 85.494375 333.711875 84.71875 334.59375 C80.10388937 339.84078332 75.39705613 344.56891943 70 349 C69.5138623 349.41443359 69.02772461 349.82886719 68.52685547 350.25585938 C25.84334024 386.64012424 -29.98734119 402.84205793 -85.578125 398.53515625 C-143.91177952 393.24204979 -199.72946764 365.7653986 -237.625 320.6875 C-273.85568155 274.77737849 -291.02295362 220.67442933 -284.4140625 162.19628906 C-278.77246721 118.64689898 -259.20358255 77.33104545 -229.19140625 45.34375 C-227.24175114 43.25855736 -225.3970342 41.12332798 -223.5625 38.9375 C-192.10477008 3.04808065 -139.96926837 -22.31687153 -92.54248047 -25.85498047 C-59.07500211 -27.76391864 -25.95230585 -22.89909339 0 0 Z M-157 59 C-178.50740145 83.20085173 -192.54170082 110.23203579 -191.18652344 143.27148438 C-189.48948911 168.09616454 -175.10683154 188.87254232 -157 205 C-131.02524705 227.48201182 -95.45396127 235.0439449 -62 236 C-61.00250732 236.03287109 -61.00250732 236.03287109 -59.98486328 236.06640625 C-47.2481863 236.4372874 -34.66462473 235.26260079 -22 234 C-22 233.67 -22 233.34 -22 233 C-22.69746338 232.91024902 -23.39492676 232.82049805 -24.11352539 232.72802734 C-65.83017154 227.24680884 -104.49092003 215.07385771 -135 185 C-135.79019531 184.22269531 -136.58039063 183.44539063 -137.39453125 182.64453125 C-156.48211581 162.68780974 -166.84639196 134.13742345 -166.2421875 106.6796875 C-165.34373472 93.02900166 -162.95428324 80.44616039 -158.24975586 67.57617188 C-157.94561768 66.74279297 -157.64147949 65.90941406 -157.328125 65.05078125 C-156.90901855 63.94730347 -156.90901855 63.94730347 -156.48144531 62.8215332 C-155.76433721 60.92055744 -155.76433721 60.92055744 -157 59 Z M-243 169 C-246.0310036 194.43878021 -241.63752789 218.68598635 -229 241 C-228.44441406 241.98484375 -227.88882813 242.9696875 -227.31640625 243.984375 C-222.69178804 251.65880138 -216.94594908 258.33413781 -211 265 C-210.41605469 265.65742187 -209.83210938 266.31484375 -209.23046875 266.9921875 C-203.50060912 273.05568453 -196.67095725 278.02783622 -190 283 C-189.43845215 283.4218457 -188.8769043 283.84369141 -188.29833984 284.27832031 C-164.05427432 302.21736145 -134.51287217 312.15470283 -105 317 C-103.7934375 317.21269531 -102.586875 317.42539062 -101.34375 317.64453125 C-43.27649784 326.73388716 18.89129852 312.08190989 66.38037109 277.49243164 C69.6367101 275.05595669 72.83186692 272.5498375 76 270 C76.87615967 269.29738037 76.87615967 269.29738037 77.77001953 268.58056641 C85.23210822 262.5348246 92.18011165 256.00809668 99 249.25 C99.70632568 248.55302002 100.41265137 247.85604004 101.14038086 247.13793945 C109.02133183 240.04884684 109.02133183 240.04884684 113 231 C109.16467539 232.45334903 105.59669113 234.19993547 101.9765625 236.125 C100.79097535 236.75102879 99.6050904 237.37649384 98.41894531 238.00146484 C97.80071899 238.32765808 97.18249268 238.65385132 96.54553223 238.9899292 C33.3338734 272.23501094 -41.59723608 293.06152052 -113 278 C-114.00546875 277.79632812 -115.0109375 277.59265625 -116.046875 277.3828125 C-143.99698633 271.57778938 -171.83998622 260.28588549 -194 242 C-195.0871462 241.1274878 -196.17438978 240.25509692 -197.26171875 239.3828125 C-220.32765576 220.62854738 -233.5394051 197.06834391 -242 169 C-242.33 169 -242.66 169 -243 169 Z M35 336 C32.77766221 336.95548314 30.65474736 337.97134211 28.5 339.0625 C-9.09938236 357.21612241 -52.0313572 358.45917532 -93 358 C-89.06235076 360.62509949 -84.94788058 361.94128525 -80.5 363.5 C-79.65179688 363.80808594 -78.80359375 364.11617187 -77.9296875 364.43359375 C-56.43119473 372.0002838 -30.77298776 371.35822265 -9 365 C-7.9466748 364.69449219 -7.9466748 364.69449219 -6.87207031 364.3828125 C10.25546903 359.17950941 23.90828628 348.90527717 37 337 C36.01 336.505 36.01 336.505 35 336 Z " fill="#055F8C" transform="translate(585,294)"/>
<path d="M0 0 C0.86139587 0.04290161 1.72279175 0.08580322 2.61029053 0.13000488 C61.52044297 3.15658649 120.18467234 16.87146641 174 41.25 C174.94552734 41.67603516 175.89105469 42.10207031 176.86523438 42.54101562 C211.8016779 58.42121723 245.32740922 78.87127936 275 103.25 C275.5470459 103.69939941 276.0940918 104.14879883 276.65771484 104.61181641 C288.97076251 114.78189592 300.50834944 125.66758693 311.8125 136.9375 C312.31263611 137.43495728 312.81277222 137.93241455 313.32806396 138.44494629 C319.10622787 144.19964388 324.71622852 150.0350477 330 156.25 C330.960686 157.34511483 331.92287378 158.43891445 332.88671875 159.53125 C340.38488352 168.11380544 347.31549571 177.02263392 354 186.25 C354.55445801 187.01054687 355.10891602 187.77109375 355.68017578 188.5546875 C370.06890329 208.37320013 382.03036067 229.37565305 393 251.25 C393.44472656 252.1354248 393.88945313 253.02084961 394.34765625 253.93310547 C415.68509429 296.74333096 429.75454522 343.83705797 436 391.25 C436.16226074 392.46429688 436.32452148 393.67859375 436.49169922 394.9296875 C440.95151145 430.05588665 441.11593262 467.09121147 437 502.25 C436.87109375 503.37776855 436.7421875 504.50553711 436.609375 505.66748047 C426.20474282 593.92621803 392.31335464 684.42651788 331 750.25 C329.8906731 751.5163314 328.78636456 752.78707926 327.6875 754.0625 C319.67844656 763.21830427 311.3362273 772.00963692 302.75 780.625 C302.00580811 781.37378418 301.26161621 782.12256836 300.49487305 782.89404297 C295.82496119 787.55098717 291.00656878 791.95921512 286 796.25 C284.9170763 797.19950394 283.83499877 798.14997412 282.75390625 799.1015625 C273.80965121 806.90257735 264.50049471 814.14192491 255 821.25 C254.3591748 821.73355957 253.71834961 822.21711914 253.05810547 822.71533203 C238.68582089 833.55350964 223.56187123 843.21432734 208 852.25 C207.34016113 852.63478516 206.68032227 853.01957031 206.00048828 853.41601562 C137.15253606 893.31746102 57.47248028 911.54446104 -21.75 911.4375 C-22.59038818 911.43689575 -23.43077637 911.4362915 -24.29663086 911.43566895 C-111.56560461 911.26716429 -194.66775585 887.56668828 -269 842.25 C-269.92329102 841.68958008 -270.84658203 841.12916016 -271.79785156 840.55175781 C-282.38044751 834.10305088 -292.42701696 827.18835282 -302.22900391 819.60791016 C-304.83022473 817.6134257 -307.48158167 815.68804118 -310.125 813.75 C-317.02608527 808.57418605 -323.53726341 802.95776349 -330 797.25 C-331.07834106 796.30519775 -331.07834106 796.30519775 -332.1784668 795.34130859 C-338.95166928 789.3379602 -345.39854361 783.03764724 -351.7956543 776.63964844 C-353.55824523 774.87924948 -355.32871039 773.12703618 -357.09960938 771.375 C-363.86804717 764.63963438 -370.06926945 757.74251825 -376 750.25 C-376.92289262 749.15976061 -377.85253019 748.07514094 -378.79296875 747 C-386.77151775 737.83703345 -393.92239413 728.11847972 -401 718.25 C-401.47937012 717.58661621 -401.95874023 716.92323242 -402.45263672 716.23974609 C-438.76177758 665.7835075 -464.12942304 606.14857806 -476 545.25 C-476.3400708 543.51049072 -476.3400708 543.51049072 -476.68701172 541.73583984 C-482.18087623 513.08225814 -484.58200502 484.73624271 -484.44703293 455.62611389 C-484.43730829 453.45724373 -484.43204332 451.2883931 -484.42727661 449.11950684 C-484.3680693 428.6441118 -483.90854328 408.50063859 -480.35150146 388.27716064 C-479.96987255 386.07625059 -479.60965441 383.87248131 -479.25244141 381.66748047 C-475.80036021 360.47450056 -471.36688617 339.78088062 -465 319.25 C-464.61440918 318.00250977 -464.22881836 316.75501953 -463.83154297 315.46972656 C-458.89590899 299.63158603 -453.26813841 284.21384907 -446.31835938 269.13671875 C-444.93383024 266.10511274 -443.59771691 263.05498089 -442.265625 260 C-432.64505605 238.20555915 -420.65724507 217.76702031 -407 198.25 C-406.60151855 197.67572266 -406.20303711 197.10144531 -405.79248047 196.50976562 C-396.72974486 183.46975507 -386.87879765 171.13620793 -376.53857422 159.09179688 C-375.39782893 157.72623317 -374.28358171 156.33844008 -373.18408203 154.93945312 C-366.9976584 147.13019517 -360.16882547 140.11267546 -353.10791016 133.09716797 C-351.12818576 131.1281685 -349.15939246 129.14869273 -347.19140625 127.16796875 C-340.09702305 120.06613072 -332.89352528 113.46234171 -325 107.25 C-323.87488237 106.30339537 -322.75529355 105.35012787 -321.64453125 104.38671875 C-299.94355085 85.61911226 -275.93154448 70.34744233 -251 56.25 C-249.98558838 55.66726318 -249.98558838 55.66726318 -248.95068359 55.07275391 C-174.68034051 12.49597273 -84.83869787 -4.22883582 0 0 Z M-139 38.25 C-140.23669434 38.58547852 -141.47338867 38.92095703 -142.74755859 39.26660156 C-159.14845094 43.75251876 -175.30387083 48.6603545 -191 55.25 C-192.44802002 55.85666504 -192.44802002 55.85666504 -193.92529297 56.47558594 C-215.63959744 65.65297841 -236.9830577 75.75216148 -257 88.25 C-257.69109863 88.68135254 -258.38219727 89.11270508 -259.09423828 89.55712891 C-279.91511 102.6400304 -299.36866001 117.22603504 -318 133.25 C-318.680625 133.82878906 -319.36125 134.40757812 -320.0625 135.00390625 C-335.74333263 148.48807051 -350.16965781 163.01909558 -363 179.25 C-363.99822108 180.47174392 -364.99695607 181.69306806 -365.99609375 182.9140625 C-382.07794967 202.81485389 -395.83109329 224.77346012 -408 247.25 C-408.76787842 248.64653809 -408.76787842 248.64653809 -409.55126953 250.07128906 C-438.25303368 302.45745282 -454.89889569 360.66119991 -459 420.25 C-459.08459473 421.42103271 -459.08459473 421.42103271 -459.17089844 422.61572266 C-466.75376165 531.62498999 -433.62935405 644.29449469 -361.01147461 729.63769531 C-360.11262708 730.66818814 -359.21297671 731.69798128 -358.3125 732.72705078 C-357.02504813 734.2209356 -355.777594 735.7489947 -354.53125 737.27734375 C-347.60354575 745.73816433 -339.97545483 753.46288437 -332.25 761.1875 C-331.70647888 761.73192749 -331.16295776 762.27635498 -330.60296631 762.83728027 C-324.58242073 768.85669106 -318.50531286 774.74998641 -312 780.25 C-310.99027401 781.12690064 -309.98112355 782.00446461 -308.97265625 782.8828125 C-236.78933132 844.69886794 -143.23787457 883.07702395 -38.38671875 886.453125 C-37.22621002 886.46013931 -36.06570129 886.46715363 -34.87002563 886.47438049 C-31.14247713 886.49178964 -27.41508768 886.49823353 -23.6875 886.5 C-21.7742543 886.50101212 -21.7742543 886.50101212 -19.82235718 886.50204468 C-0.3624555 886.48569297 18.71497347 886.01263749 38 883.25 C39.24555664 883.07307617 40.49111328 882.89615234 41.77441406 882.71386719 C69.87925748 878.59523789 97.05837196 872.24106316 124 863.25 C124.98307129 862.92273926 125.96614258 862.59547852 126.97900391 862.25830078 C172.87029203 846.76848542 215.18126999 822.3611084 253 792.25 C253.928125 791.51523437 254.85625 790.78046875 255.8125 790.0234375 C261.75532986 785.24553736 267.40393614 780.21780214 272.98046875 775.0234375 C275.2305385 772.93324413 277.53414968 770.91630536 279.859375 768.91015625 C284.10180469 765.21242737 288.09582334 761.3022611 292.0625 757.3125 C292.73087891 756.64798828 293.39925781 755.98347656 294.08789062 755.29882812 C298.02939078 751.34966714 301.78128554 747.28975493 305.42553711 743.06518555 C307.47788901 740.69904562 309.61402781 738.41564604 311.75 736.125 C331.47988438 714.43105474 347.85686417 689.46584579 361.69189453 663.68115234 C362.59472591 662.00321376 363.50503232 660.32928322 364.42138672 658.65869141 C372.83935074 643.30208247 379.68645401 627.57535998 386 611.25 C386.51602783 609.94337402 386.51602783 609.94337402 387.04248047 608.61035156 C424.30600709 514.23994569 422.27577417 406.55265793 379.39477539 280.17260742 C369.07654487 256.41157496 356.84432089 233.50818784 342 212.25 C341.10143747 210.93888776 340.20301025 209.62768279 339.3046875 208.31640625 C332.76579453 198.84445193 325.79821821 189.83856315 318.43847656 180.99267578 C317.18789801 179.4776334 315.96270021 177.94171013 314.7421875 176.40234375 C305.53893274 164.80204355 295.27853315 153.79114502 284.0859375 144.0859375 C282.14759552 142.37990617 280.35351036 140.60827836 278.5625 138.75 C274.54442007 134.67611341 270.11168454 131.1565779 265.64990234 127.58349609 C263.86407058 126.14013813 262.09732037 124.67543292 260.33203125 123.20703125 C250.88395437 115.37859089 241.12496775 108.17581006 231 101.25 C230.38866211 100.82654297 229.77732422 100.40308594 229.14746094 99.96679688 C165.67923406 56.02993329 87.90303241 30.45919023 11 25.25 C9.77434326 25.16459961 8.54868652 25.07919922 7.28588867 24.99121094 C-3.41424227 24.28132939 -14.08987486 24.00773922 -24.8125 24 C-25.66972656 23.99932526 -26.52695312 23.99865051 -27.41015625 23.99795532 C-65.04014592 24.04428274 -102.64335276 28.38276201 -139 38.25 Z " fill="#09618E" transform="translate(538,30.75)"/>
<path d="M0 0 C6.63352409 0.18617572 13.16821056 1.50217546 19.63671875 2.890625 C20.96048271 3.17036163 20.96048271 3.17036163 22.31098938 3.45574951 C24.16617057 3.8497192 26.02075604 4.24650385 27.87475586 4.64599609 C30.66117622 5.24434728 33.45044782 5.82773015 36.24023438 6.41015625 C73.2663299 14.25926117 73.2663299 14.25926117 82.87890625 28.0078125 C86.91366081 35.17758542 87.1723251 42.76905571 85.3828125 50.75390625 C81.6612231 61.27645327 74.59590354 67.29029999 64.734375 72.00390625 C62 73 62 73 58 73 C61.6231509 100.93661235 61.6231509 100.93661235 76.3125 123.9375 C76.869375 124.288125 77.42625 124.63875 78 125 C77.67 126.65 77.34 128.3 77 130 C68.88061734 132.64582734 57.47628026 128.25963119 50.15234375 124.5625 C40.69086397 117.27041539 38.9491556 102.41347055 36.8125 91.4375 C36.3239475 88.97687918 35.83066518 86.51719143 35.33203125 84.05859375 C35.01842651 82.45455688 35.01842651 82.45455688 34.69848633 80.81811523 C34.06230024 78.25135674 33.3907287 76.24092729 32 74 C30.06018382 73.09390008 30.06018382 73.09390008 27.875 72.75 C25.956875 72.37875 25.956875 72.37875 24 72 C21.81722501 78.15775228 20.1027848 84.29764151 18.75 90.6875 C18.564375 91.50283203 18.37875 92.31816406 18.1875 93.15820312 C17.2259842 97.66348741 16.49071435 101.51311915 18 106 C19.79801875 107.55886026 19.79801875 107.55886026 22.0625 108.375 C23.16271484 108.85066406 23.16271484 108.85066406 24.28515625 109.3359375 C24.85105469 109.55507812 25.41695312 109.77421875 26 110 C26.125 115.75 26.125 115.75 25 118 C15.82553174 116.4389745 6.80853091 114.37279508 -2.24023438 112.2109375 C-8.68402276 110.694752 -15.08037478 109.43998761 -21.63891602 108.52734375 C-24 108 -24 108 -26 106 C-26.1875 103.4375 -26.1875 103.4375 -26 101 C-24.04376732 99.04376732 -20.29573175 99.68948536 -17.640625 99.57421875 C-14.01291193 98.78535215 -12.60804271 97.68501795 -10 95 C-8.64281965 91.76326731 -7.90179334 88.41993494 -7.125 85.00390625 C-6.87943359 83.9951796 -6.63386719 82.98645294 -6.38085938 81.94715881 C-5.85119865 79.7691842 -5.32900261 77.58938353 -4.81347656 75.40802002 C-3.99557188 71.98144863 -3.14090931 68.56619303 -2.2734375 65.15185547 C-0.78226307 59.28228332 0.67539972 53.40519885 2.11669922 47.52319336 C2.71345666 45.10070123 3.31681878 42.67982798 3.92626953 40.26049805 C4.82056375 36.70725432 5.69373351 33.14940293 6.5625 29.58984375 C6.83835937 28.51177963 7.11421875 27.43371552 7.3984375 26.32298279 C9.20121931 19.03597963 9.20121931 19.03597963 7 12 C5.10117704 10.46282894 5.10117704 10.46282894 2.875 9.5 C0.71484375 8.296875 0.71484375 8.296875 -1 7 C-1.5625 3.75 -1.5625 3.75 -1 1 C-0.67 0.67 -0.34 0.34 0 0 Z M35 24 C30.93811506 33.88115683 28.84746341 44.90702046 26.171875 55.23046875 C25.9459668 56.10082764 25.72005859 56.97118652 25.48730469 57.86791992 C24.92572911 59.96044376 24.92572911 59.96044376 25 62 C32.14060136 64.11573374 39.65767357 65.5963766 46.8125 62.75 C54.08740735 58.75593322 57.19995991 54.54528479 59.7265625 46.76171875 C61.40867074 40.26878095 61.37303786 35.04456222 58.5625 28.8125 C54.54145785 24.39916106 49.59395988 21.64026848 43.67578125 20.5859375 C39.59944154 20.42017138 37.4855337 20.78835534 35 24 Z " fill="#0C638F" transform="translate(559,100)"/>
<path d="M0 0 C8.96147584 6.53855829 13.51665518 14.79126799 16.109375 25.5390625 C17.0775962 36.58353921 16.43144543 46.16686693 9.546875 55.2265625 C1.78038896 63.45787563 -8.37216547 67.20693736 -18.890625 70.5390625 C-16.67693731 76.50639454 -14.15485324 82.30897821 -11.390625 88.0390625 C-10.8234375 89.225 -10.25625 90.4109375 -9.671875 91.6328125 C-7.87470245 94.5650414 -7.11874844 95.55796616 -3.890625 96.5390625 C0.59029088 96.78800227 4.71149313 96.39718579 9.109375 95.5390625 C12.109375 99.1640625 12.109375 99.1640625 12.109375 102.5390625 C11.36067139 102.85544678 10.61196777 103.17183105 9.84057617 103.49780273 C6.96758506 104.71418744 4.09588828 105.93355838 1.2253418 107.15570068 C-0.05725656 107.70164528 -1.34013317 108.24693663 -2.62329102 108.79156494 C-11.62505473 112.61705772 -20.5297753 116.58820266 -29.20239258 121.12280273 C-34.31305387 123.68253558 -34.31305387 123.68253558 -37.34375 122.9296875 C-39.4765236 121.01234558 -39.59698823 119.32861177 -39.890625 116.5390625 C-39.39691406 116.16394531 -38.90320313 115.78882813 -38.39453125 115.40234375 C-37.75386719 114.89058594 -37.11320312 114.37882812 -36.453125 113.8515625 C-35.49599609 113.10326172 -35.49599609 113.10326172 -34.51953125 112.33984375 C-32.35739744 109.94957112 -32.10097468 108.77638206 -31.890625 105.5390625 C-32.72359897 102.63455166 -33.97592875 99.9474781 -35.23828125 97.20703125 C-35.60153503 96.38993179 -35.96478882 95.57283234 -36.33905029 94.73097229 C-37.53113085 92.05698489 -38.74172661 89.39184703 -39.953125 86.7265625 C-40.78013624 84.88434803 -41.60589192 83.04156943 -42.43041992 81.19824219 C-43.68691445 78.38991044 -44.94449405 75.58211876 -46.20735168 72.77664185 C-48.87761124 66.83891424 -51.48288153 60.87769463 -54.03125 54.88671875 C-54.66126966 53.41312144 -55.29139357 51.9395687 -55.92163086 50.46606445 C-56.8059032 48.39758677 -57.68679051 46.32804427 -58.55618286 44.25326538 C-59.35090425 42.35935352 -60.16014325 40.47227042 -60.97265625 38.5859375 C-61.41843018 37.53245117 -61.8642041 36.47896484 -62.32348633 35.39355469 C-64.11205013 32.13574382 -66.08040804 29.95983424 -68.890625 27.5390625 C-71.74568412 26.97652365 -71.74568412 26.97652365 -74.640625 27.2890625 C-76.38958473 27.39194248 -78.1396276 27.4803042 -79.890625 27.5390625 C-80.890625 26.5390625 -80.890625 26.5390625 -80.953125 23.4765625 C-80.9325 22.5071875 -80.911875 21.5378125 -80.890625 20.5390625 C-74.37219955 17.06363665 -67.69345283 14.17465352 -60.8515625 11.41674805 C-54.14750233 8.69432047 -47.5691903 5.71875183 -41.01806641 2.64746094 C-28.27276172 -3.22046581 -12.97126068 -7.79146195 0 0 Z M-40.828125 16.4140625 C-42.23893465 19.23568179 -41.66558269 20.5201767 -40.890625 23.5390625 C-40.32747669 25.06241684 -39.7185658 26.56946241 -39.0703125 28.05859375 C-38.70301025 28.90905273 -38.33570801 29.75951172 -37.95727539 30.63574219 C-37.56403076 31.53196289 -37.17078613 32.42818359 -36.765625 33.3515625 C-36.1631897 34.73649902 -36.1631897 34.73649902 -35.54858398 36.14941406 C-34.72771162 38.03545249 -33.90504088 39.92070922 -33.08056641 41.80517578 C-31.97524745 44.34464269 -30.88805342 46.89086167 -29.80859375 49.44140625 C-29.19017569 50.89065552 -28.57169039 52.3398761 -27.953125 53.7890625 C-27.67130371 54.46171143 -27.38948242 55.13436035 -27.09912109 55.82739258 C-25.75384777 59.3380641 -25.75384777 59.3380641 -22.890625 61.5390625 C-16.05654237 58.97877207 -10.05627784 56.32260431 -6.890625 49.5390625 C-4.08403491 41.11929224 -6.39361182 32.59201543 -10.21484375 24.859375 C-13.48436413 19.07549905 -16.82546413 14.57164294 -22.890625 11.5390625 C-29.95096314 10.87874311 -35.51255197 11.26995957 -40.828125 16.4140625 Z " fill="#0C638F" transform="translate(385.890625,128.4609375)"/>
<path d="M0 0 C0 1.98 0 3.96 0 6 C-1.79036458 6.91145833 -3.58072917 7.82291667 -5.37109375 8.734375 C-7.49255006 10.38270077 -7.53520028 11.3818389 -8 14 C-8.03757444 15.62204899 -8.0152583 17.24604792 -7.94921875 18.8671875 C-7.91111084 19.82351074 -7.87300293 20.77983398 -7.83374023 21.76513672 C-7.78548096 22.7913916 -7.73722168 23.81764648 -7.6875 24.875 C-7.64117432 25.94637207 -7.59484863 27.01774414 -7.54711914 28.12158203 C-7.21927285 35.06824087 -6.65182522 41.95900408 -5.9375 48.875 C-5.11784954 57.16569988 -4.72478025 65.41923449 -4.625 73.75 C-4.58620728 75.35657471 -4.58620728 75.35657471 -4.54663086 76.99560547 C-4.52423266 86.2106576 -6.67121086 94.48973911 -13.12109375 101.34375 C-23.48999961 110.48390818 -36.21637485 115.15109942 -50 115 C-61.70978664 114.20466444 -72.53798279 112.37635119 -81.25 104.015625 C-93.20408728 90.24707805 -92.00401193 66.21582798 -93.5625 49 C-93.87459618 45.56863429 -94.18889117 42.13754364 -94.51023865 38.70703125 C-94.70832829 36.59165304 -94.90127057 34.47578379 -95.08802795 32.359375 C-95.642863 26.42495819 -96.58320194 20.7912041 -98 15 C-99.02105835 14.81304565 -99.02105835 14.81304565 -100.06274414 14.62231445 C-104.93359375 13.73046875 -104.93359375 13.73046875 -107 13 C-108.04449911 9.86650268 -107.93423645 9.01031744 -107 6 C-106.19481934 5.9498877 -105.38963867 5.89977539 -104.56005859 5.84814453 C-101.49937341 5.6549626 -98.43906311 5.4567366 -95.37890625 5.25537109 C-93.43253163 5.12874292 -91.4857996 5.00764641 -89.5390625 4.88671875 C-81.99119695 4.38609501 -74.57758627 3.59931937 -67.10791016 2.39794922 C-64.00443055 2.00056731 -61.12317429 1.79007163 -58 2 C-56 4 -56 4 -56 8 C-57.15628906 8.58007812 -57.15628906 8.58007812 -58.3359375 9.171875 C-59.33882813 9.69265625 -60.34171875 10.2134375 -61.375 10.75 C-62.37273437 11.26046875 -63.37046875 11.7709375 -64.3984375 12.296875 C-67.21694317 14.14202286 -67.81450695 14.94013715 -69 18 C-70.14727889 28.05504885 -68.4170066 38.78216847 -67.51074219 48.82519531 C-67.25188502 51.72885534 -67.01235539 54.63370297 -66.7734375 57.5390625 C-65.7774566 78.20828314 -65.7774566 78.20828314 -56.6875 95.8046875 C-50.70390407 100.04306795 -44.1974461 100.95676021 -37 100 C-29.93154686 98.24852488 -24.85877148 95.27050366 -21 89 C-16.04015137 78.27721233 -18.08238176 65.34794514 -19.25 53.9375 C-19.39089548 52.48668777 -19.53143524 51.03584096 -19.67163086 49.58496094 C-20.48874269 41.28864146 -21.41584575 33.00785664 -22.5625 24.75 C-22.6769043 23.91847412 -22.79130859 23.08694824 -22.90917969 22.23022461 C-23.72164696 16.37120614 -23.72164696 16.37120614 -26 11 C-28.34679478 9.79138812 -28.34679478 9.79138812 -31.0625 9.25 C-35.95809524 8.04190476 -35.95809524 8.04190476 -37 7 C-37.04080783 5.00041636 -37.04254356 2.99954746 -37 1 C-34.44217182 -0.27891409 -32.47818471 -0.21003644 -29.6171875 -0.31640625 C-28.53179687 -0.35830078 -27.44640625 -0.40019531 -26.328125 -0.44335938 C-25.18859375 -0.48267578 -24.0490625 -0.52199219 -22.875 -0.5625 C-21.75867188 -0.60568359 -20.64234375 -0.64886719 -19.4921875 -0.69335938 C-2.63879837 -1.31939918 -2.63879837 -1.31939918 0 0 Z " fill="#0E638F" transform="translate(524,99)"/>
<path d="M0 0 C4.85406547 0.51209309 7.87767891 1.89252757 11.9375 4.5625 C21.37837392 10.60947064 31.30460019 15.68302939 41.3359375 20.671875 C46.48557578 23.23903794 51.62829178 25.81911599 56.76145935 28.41906738 C59.83365666 29.97448591 62.9085535 31.52452675 65.98364258 33.07421875 C67.54623034 33.86312981 69.10774299 34.65417366 70.66821289 35.44726562 C86.58996951 44.73653792 86.58996951 44.73653792 104 46 C106.8125 45.3125 106.8125 45.3125 109 45 C111 47 111 47 111.5859375 49.234375 C110.63117379 53.74085972 107.18803704 55.57772222 103.625 58.25 C102.14683956 59.40159768 100.67027486 60.55524656 99.1953125 61.7109375 C98.47375977 62.27135742 97.75220703 62.83177734 97.00878906 63.40917969 C94.41208754 65.46558551 91.94669463 67.64306227 89.5 69.875 C88.73429687 70.57109375 87.96859375 71.2671875 87.1796875 71.984375 C85.69451356 73.35776165 84.22093838 74.74377312 82.7578125 76.140625 C81.70207031 77.12289062 81.70207031 77.12289062 80.625 78.125 C80.01914062 78.70507812 79.41328125 79.28515625 78.7890625 79.8828125 C77 81 77 81 74.9609375 80.8046875 C73 80 73 80 70 78 C70.61277612 75.03824877 71.25372522 73.61941217 73 71 C73.30025049 68.5586734 73.30025049 68.5586734 72 66 C67.59318855 61.84989601 62.293764 58.8674555 57 56 C56.73735352 56.59385498 56.47470703 57.18770996 56.20410156 57.79956055 C54.93987404 60.10987739 53.68455629 61.45441558 51.734375 63.20703125 C51.09113281 63.79419922 50.44789063 64.38136719 49.78515625 64.98632812 C49.11355469 65.58896484 48.44195312 66.19160156 47.75 66.8125 C42.77884608 71.29044513 38.26042704 75.83323988 34 81 C35.23377222 83.48850659 36.48554891 85.96464618 37.75 88.4375 C38.09804688 89.14455078 38.44609375 89.85160156 38.8046875 90.58007812 C40.61812286 94.47507215 40.61812286 94.47507215 44.02246094 96.76196289 C46.56211345 97.0676618 47.42297002 96.43503889 49.5 95 C52.72916667 92.97222222 52.72916667 92.97222222 55.4375 93.25 C57 94 57 94 57.78125 96.1640625 C58 99 58 99 56.21875 101.5859375 C55.3215625 102.50632812 54.424375 103.42671875 53.5 104.375 C53.01748779 104.87741211 52.53497559 105.37982422 52.0378418 105.89746094 C50.37576825 107.61607469 48.6898887 109.30874075 47 111 C45.6419029 112.3723719 44.2838309 113.74476864 42.92578125 115.1171875 C39.30326481 118.76452743 35.65900332 122.38928809 32 126 C28.1171875 124.234375 28.1171875 124.234375 27.0625 122.125 C27 120 27 120 28.4375 118.3125 C30.86684053 114.71707601 30.47764022 111.22521455 30 107 C29.08075388 103.87989012 27.74086953 101.04213972 26.3125 98.125 C25.91530762 97.2791333 25.51811523 96.4332666 25.10888672 95.56176758 C23.75761305 92.69872118 22.379865 89.84936782 21 87 C19.96409957 84.83499133 18.92897043 82.66961348 17.89453125 80.50390625 C15.70385883 75.92878132 13.49928748 71.36068992 11.28515625 66.796875 C9.14440646 62.38059447 7.02641374 57.95481686 4.93359375 53.515625 C4.2063208 51.97708862 4.2063208 51.97708862 3.46435547 50.4074707 C2.56479554 48.50166323 1.66895502 46.59409317 0.77783203 44.68432617 C-2.81151033 37.10016564 -6.76778931 29.81647498 -11.9375 23.1875 C-14 20 -14 20 -14.00390625 17.71875 C-12.54212312 13.75999101 -9.92575666 11.28881697 -7 8.3125 C-3.05550269 4.48513403 -3.05550269 4.48513403 0 0 Z M10 32 C11.29815472 36.11928424 12.83409686 39.95736413 14.71484375 43.84375 C15.23626953 44.92527344 15.75769531 46.00679687 16.29492188 47.12109375 C16.83697266 48.23613281 17.37902344 49.35117188 17.9375 50.5 C18.47568359 51.61503906 19.01386719 52.73007812 19.56835938 53.87890625 C22.01265598 58.93627949 24.48086968 63.97941746 27 69 C30.2586636 67.5735422 32.4024854 65.83295838 34.890625 63.3046875 C35.59960938 62.58925781 36.30859375 61.87382812 37.0390625 61.13671875 C37.76867187 60.39035156 38.49828125 59.64398438 39.25 58.875 C39.99507813 58.12089844 40.74015625 57.36679687 41.5078125 56.58984375 C43.3431342 54.73099228 45.1736191 52.86762995 47 51 C43.4815775 48.2744075 39.79769253 46.2663298 35.8125 44.3125 C35.12285156 43.97089844 34.43320312 43.62929687 33.72265625 43.27734375 C25.86823768 39.40664107 17.93858627 35.69419361 10 32 Z " fill="#0C6490" transform="translate(229,206)"/>
<path d="M0 0 C2.69530096 5.31925572 5.35302231 10.65655061 8 16 C8.77851318 17.56572754 8.77851318 17.56572754 9.57275391 19.16308594 C11.24696036 22.54094838 12.90611018 25.92587014 14.5625 29.3125 C15.11131836 30.41585693 15.66013672 31.51921387 16.22558594 32.65600586 C16.72993164 33.69378174 17.23427734 34.73155762 17.75390625 35.80078125 C18.21095947 36.73059814 18.6680127 37.66041504 19.13891602 38.6184082 C20 41 20 41 19 44 C15.535 44.495 15.535 44.495 12 45 C11.01 43.68 10.02 42.36 9 41 C2.50561163 41.93971695 -1.21717345 48.63872719 -4.92480469 53.54931641 C-6.77495742 56.11538931 -8.58255377 58.705838 -10.375 61.3125 C-10.98988281 62.19228516 -11.60476563 63.07207031 -12.23828125 63.97851562 C-14.73265038 67.57269959 -17.12655495 71.03677026 -19 75 C2.81955955 76.84546365 2.81955955 76.84546365 23 72 C23 70.68 23 69.36 23 68 C23 66.68 23 65.36 23 64 C26.22791555 61.8480563 27.28400809 61.79913557 31 62 C33.69193818 67.32094793 36.35726582 72.65444323 39 78 C39.35175293 78.70930664 39.70350586 79.41861328 40.06591797 80.14941406 C41.05543597 82.15676245 42.02999981 84.17066039 43 86.1875 C43.30236572 86.79795166 43.60473145 87.40840332 43.91625977 88.03735352 C45.54925653 91.47597129 46.54208382 94.18508512 46 98 C44 100 44 100 41.8125 100.5 C38.64468931 99.93683366 38.0551612 99.29361107 35.8125 97.125 C29.33353373 91.14908983 19.1727221 91.58572155 10.76953125 90.89453125 C9.73487228 90.80620529 8.70021332 90.71787933 7.63420105 90.62687683 C5.46381623 90.44340936 3.29318029 90.26289046 1.12231445 90.08520508 C-2.18957574 89.81232897 -5.49998756 89.52485299 -8.81054688 89.23632812 C-10.9296138 89.05901279 -13.04875235 88.88255098 -15.16796875 88.70703125 C-16.15041061 88.62064896 -17.13285248 88.53426666 -18.14506531 88.44526672 C-25.53257555 87.85865994 -31.71805004 88.18415061 -38.609375 91.1796875 C-40.11177734 91.83130859 -40.11177734 91.83130859 -41.64453125 92.49609375 C-42.66933594 92.95113281 -43.69414063 93.40617187 -44.75 93.875 C-45.79027344 94.32230469 -46.83054687 94.76960938 -47.90234375 95.23046875 C-54.0851865 97.70252955 -54.0851865 97.70252955 -59 102 C-59.17506188 104.64807072 -59.17506188 104.64807072 -58.875 107.5 C-58.78125 110.45703125 -58.78125 110.45703125 -59 113 C-61.45694253 115.26297338 -62.6796254 116 -66 116 C-69.18691151 109.40539968 -72.35025417 102.7999298 -75.48974609 96.18261719 C-76.46384553 94.1298593 -77.44054161 92.07833062 -78.42041016 90.02832031 C-79.71152739 87.31711431 -80.98351268 84.59778146 -82.25 81.875 C-82.64437256 81.05354492 -83.03874512 80.23208984 -83.44506836 79.38574219 C-86.06014109 73.69162258 -86.06014109 73.69162258 -85.734375 69.9453125 C-85.49203125 69.30335938 -85.2496875 68.66140625 -85 68 C-82.525 67.505 -82.525 67.505 -80 67 C-75 72.75 -75 72.75 -75 75 C-68.48160918 76.29781235 -64.57182747 75.64900914 -58.5625 72.9375 C-57.81532715 72.60878906 -57.0681543 72.28007812 -56.29833984 71.94140625 C-54.183773 70.98992032 -52.0899256 70.00424996 -50 69 C-48.65615234 68.36771484 -48.65615234 68.36771484 -47.28515625 67.72265625 C-39.5162801 63.32544425 -34.88847358 55.21498936 -30 48 C-29.56510254 47.36819824 -29.13020508 46.73639648 -28.68212891 46.08544922 C-22.40137231 36.96084606 -16.53178184 27.59716461 -11 18 C-10.60039063 17.33871094 -10.20078125 16.67742187 -9.7890625 15.99609375 C-8.64594386 13.10434313 -8.56056879 10.34281325 -8.375 7.25 C-8.30023437 6.07953125 -8.22546875 4.9090625 -8.1484375 3.703125 C-8.07496094 2.36507813 -8.07496094 2.36507813 -8 1 C-5.07175348 0.02391783 -3.04386724 -0.08226668 0 0 Z " fill="#0C6490" transform="translate(857,279)"/>
<path d="M0 0 C3.75670835 1.25223612 4.27773903 2.5514537 6.45239258 5.8046875 C11.25599799 12.59026789 16.88146489 18.29921129 22.76171875 24.125 C23.88225118 25.24501221 25.00226175 26.36554672 26.1217804 27.48657227 C28.4493012 29.81400415 30.78182585 32.1362561 33.1184082 34.45458984 C36.10601634 37.41936758 39.08226571 40.39525101 42.05511761 43.37481689 C44.3581758 45.6812197 46.66619847 47.98260071 48.97583961 50.28240967 C50.0755322 51.3782694 51.17389923 52.47546107 52.27087975 53.57403564 C53.80160771 55.10513588 55.338692 56.6295577 56.87768555 58.15234375 C57.74846237 59.01851318 58.6192392 59.88468262 59.5164032 60.77709961 C61.89024837 62.9017687 64.21443378 64.4703652 67 66 C65.62456654 70.12630038 62.71920322 71.83422958 59.375 74.375 C58.77042969 74.84421875 58.16585937 75.3134375 57.54296875 75.796875 C56.32123814 76.73987389 55.09298566 77.67448282 53.85839844 78.60058594 C52.59808605 79.54962832 51.35155875 80.51720509 50.11816406 81.50097656 C45.51121665 85.06010785 45.51121665 85.06010785 42.91943359 84.75537109 C41 84 41 84 39 82 C39.19237833 78.63337928 40.32240224 76.36151845 42.0625 73.5625 C44.05728448 70.13442593 44.90234127 68.01952019 44 64 C40.67086036 59.21087454 36.58516929 55.56360307 32 52 C21.04894544 61.93907592 10.58586201 72.33437532 0.18994141 82.84716797 C-4.83844371 87.9208985 -9.86121011 92.94461398 -15.32543945 97.55639648 C-23.45171004 104.51242263 -23.45171004 104.51242263 -28.9375 113.4375 C-29.02244965 116.92043561 -27.64333181 118.96615666 -26 122 C-25.125 124.6875 -25.125 124.6875 -25 127 C-26.1875 128.875 -26.1875 128.875 -28 130 C-31.28601358 129.57064575 -32.93209671 128.44020542 -35.23632812 126.12011719 C-35.84375854 125.51568787 -36.45118896 124.91125854 -37.07702637 124.28851318 C-37.72192017 123.63127258 -38.36681396 122.97403198 -39.03125 122.296875 C-39.70418091 121.62207092 -40.37711182 120.94726685 -41.07043457 120.25201416 C-42.49269505 118.82303285 -43.91135383 117.39045908 -45.32666016 115.95458984 C-47.48485342 113.76536437 -49.65341641 111.58687224 -51.82421875 109.41015625 C-53.20635181 108.01884743 -54.58788213 106.62693953 -55.96875 105.234375 C-56.6136438 104.58523132 -57.2585376 103.93608765 -57.92297363 103.26727295 C-64.80276128 96.27866978 -64.80276128 96.27866978 -67 93 C-66 90 -66 90 -63.8125 88.5625 C-61 88 -61 88 -58 89.8125 C-57.01 90.534375 -56.02 91.25625 -55 92 C-52.60648505 93.16210219 -52.60648505 93.16210219 -50 93 C-44.9246059 90.45346178 -41.04047098 87.46707365 -37.06469727 83.40527344 C-36.51747513 82.85848938 -35.97025299 82.31170532 -35.40644836 81.74835205 C-33.61922005 79.95905206 -31.84282448 78.15940206 -30.06640625 76.359375 C-28.82153537 75.10890241 -27.57599567 73.85909533 -26.32981873 72.60992432 C-23.0664736 69.3351758 -19.81224238 66.05151625 -16.55987549 62.76586914 C-13.2335629 59.4087583 -9.89864262 56.06022208 -6.56445312 52.7109375 C-0.03455264 46.14895243 6.48574437 39.57751383 13 33 C12.07631247 31.71571543 11.14515297 30.43680302 10.2109375 29.16015625 C9.69321777 28.44738525 9.17549805 27.73461426 8.64208984 27.00024414 C6.0070051 23.79042415 3.89117732 22.54305307 0 21 C-4.01644671 20.77005076 -7.2131856 21.52425176 -10.6875 23.625 C-13 25 -13 25 -15.6875 24.875 C-18 24 -18 24 -20 21 C-19.76489347 16.53297587 -17.90517288 14.28034421 -15 11 C-12.87208098 9.13850001 -10.64088613 7.43929904 -8.375 5.75 C-7.78976562 5.30398437 -7.20453125 4.85796875 -6.6015625 4.3984375 C-2.32854353 1.16427176 -2.32854353 1.16427176 0 0 Z " fill="#0B6391" transform="translate(774,186)"/>
<path d="M0 0 C4.875 1.875 4.875 1.875 6 3 C6.16351903 5.45278545 6.25455961 7.90229082 6.328125 10.359375 C7.28517874 14.12081879 9.05882545 15.48130261 12 18 C14.67390901 19.40249149 17.44622087 20.41045407 20.2890625 21.41796875 C21.09754639 21.71712692 21.90603027 22.0162851 22.73901367 22.32450867 C25.36305082 23.29202996 27.99368444 24.23997336 30.625 25.1875 C32.43453836 25.84982883 34.24361853 26.51341074 36.05224609 27.17822266 C39.66661351 28.50503266 43.28345202 29.8247434 46.90234375 31.13916016 C51.42566845 32.78526529 55.9347195 34.46658453 60.4375 36.16796875 C61.66774902 36.63114502 62.89799805 37.09432129 64.16552734 37.5715332 C66.41159485 38.41781086 68.65676748 39.26646879 70.90087891 40.11791992 C77.77851626 42.74011705 77.77851626 42.74011705 85 44 C87.14163593 43.20549741 87.14163593 43.20549741 87.7019043 41.25341797 C88.37786081 38.7972747 89.04378584 36.33982003 89.6875 33.875 C89.92533203 33.03195312 90.16316406 32.18890625 90.40820312 31.3203125 C91.76147745 26.20882473 92.29139546 22.25302007 91 17 C88.38502301 12.83540702 85.1600097 10.55273323 81 8 C81.875 2.125 81.875 2.125 83 1 C88.98684915 1.40016947 93.87610057 3.3712155 99.3125 5.8125 C100.12267578 6.15603516 100.93285156 6.49957031 101.76757812 6.85351562 C102.54166016 7.19705078 103.31574219 7.54058594 104.11328125 7.89453125 C104.81235596 8.20237549 105.51143066 8.51021973 106.23168945 8.82739258 C108.48460586 10.3213533 109.06404902 11.47415004 110 14 C109.68692017 16.17974854 109.68692017 16.17974854 108.88525391 18.57128906 C108.59059235 19.47453918 108.29593079 20.37778931 107.99234009 21.30841064 C107.65713348 22.28429138 107.32192688 23.26017212 106.9765625 24.265625 C106.63756927 25.29065125 106.29857605 26.31567749 105.9493103 27.37176514 C104.85512106 30.669338 103.74045781 33.95956826 102.625 37.25 C101.91139608 39.38886821 101.19914269 41.5281875 100.48828125 43.66796875 C99.06352604 47.94932839 97.62820558 52.22692422 96.18457031 56.50195312 C94.68504447 60.94747543 93.20717493 65.39943772 91.74511719 69.85742188 C91.20109756 71.51049347 91.20109756 71.51049347 90.64608765 73.19696045 C89.95441641 75.30098376 89.26612566 77.40612226 88.58169556 79.51251221 C88.11659073 80.92315948 88.11659073 80.92315948 87.64208984 82.36230469 C87.23740982 83.60110382 87.23740982 83.60110382 86.82455444 84.8649292 C86 87 86 87 84 90 C79.25 89.125 79.25 89.125 77 88 C77.144375 86.824375 77.28875 85.64875 77.4375 84.4375 C77.52386719 83.71046875 77.61023438 82.9834375 77.69921875 82.234375 C77.97215725 80.20683189 78.3551098 78.19485852 78.75 76.1875 C79.32439291 73.13179539 79.32439291 73.13179539 77.95410156 71.46606445 C75.2088574 69.40644536 72.20316356 68.43368733 68.984375 67.35546875 C68.27259598 67.10880966 67.56081696 66.86215057 66.82746887 66.60801697 C64.47102302 65.79305932 62.11066765 64.99013824 59.75 64.1875 C56.3984225 63.03636032 53.04873186 61.87978706 49.69921875 60.72265625 C48.83139267 60.42373474 47.96356659 60.12481323 47.06944275 59.8168335 C40.71181272 57.61827518 34.39178894 55.32813339 28.08203125 52.99609375 C26.30441373 52.34271401 24.52674509 51.68947333 22.74902344 51.03637695 C20.16682051 50.0873181 17.58662645 49.13406604 15.01135254 48.16635132 C12.61747053 47.26760437 10.21782842 46.38617449 7.81640625 45.5078125 C6.75931206 45.10259621 6.75931206 45.10259621 5.68086243 44.68919373 C1.40413029 43.14654984 -1.60851561 42.72685061 -6 44 C-7.74661607 45.56096142 -7.74661607 45.56096142 -8.875 47.5625 C-9.28492188 48.20316406 -9.69484375 48.84382813 -10.1171875 49.50390625 C-10.40851563 49.99761719 -10.69984375 50.49132812 -11 51 C-15.75 50.125 -15.75 50.125 -18 49 C-16.57795034 41.3711218 -14.07241293 34.25194644 -11.36914062 26.99804688 C-10.62735779 25.00633075 -9.89503612 23.01133015 -9.1640625 21.015625 C-2.25575771 2.25575771 -2.25575771 2.25575771 0 0 Z " fill="#0E648F" transform="translate(147,328)"/>
<path d="M0 0 C4.26612336 0.53789838 6.58137004 1.92917646 9.9296875 4.578125 C14.10399575 7.71971584 18.34751386 10.45213549 22.9453125 12.921875 C23.53302429 13.23862183 24.12073608 13.55536865 24.72625732 13.88171387 C27.14261317 15.17556911 29.56537738 16.456732 31.99316406 17.72900391 C33.79601898 18.67780012 35.58961302 19.64248685 37.3828125 20.609375 C38.43871582 21.16592773 39.49461914 21.72248047 40.58251953 22.29589844 C43 24 43 24 43.94091797 26.07128906 C44.02533599 28.82708402 42.78607515 29.99959584 41 32 C40.33613281 31.82082031 39.67226563 31.64164063 38.98828125 31.45703125 C38.10527344 31.24433594 37.22226562 31.03164062 36.3125 30.8125 C35.44238281 30.59207031 34.57226562 30.37164062 33.67578125 30.14453125 C30.16467224 29.95488011 28.8472497 30.98901123 26 33 C24.29262031 35.02917058 24.29262031 35.02917058 22.90625 37.40234375 C22.35775391 38.28204834 21.80925781 39.16175293 21.24414062 40.06811523 C20.66857422 41.01501221 20.09300781 41.96190918 19.5 42.9375 C18.25107225 44.94858295 17.00104939 46.95898618 15.75 48.96875 C14.80833984 50.49048828 14.80833984 50.49048828 13.84765625 52.04296875 C11.64280106 55.57166934 9.37244596 59.05307876 7.08496094 62.52856445 C4.36171288 66.66754913 1.67620138 70.83047825 -1 75 C-1.63099609 75.98307129 -2.26199219 76.96614258 -2.91210938 77.97900391 C-4.87569419 81.05861434 -6.8157561 84.15189364 -8.75 87.25 C-9.35908203 88.20253662 -9.96816406 89.15507324 -10.59570312 90.13647461 C-14.41406673 96.31830007 -16.50875602 101.03962883 -15.75 108.4375 C-15.5025 108.953125 -15.255 109.46875 -15 110 C-14.01 110.33 -13.02 110.66 -12 111 C-11.875 113.375 -11.875 113.375 -12 116 C-12.66 116.66 -13.32 117.32 -14 118 C-19.06717762 117.74922265 -22.80854407 115.67335013 -27.0625 113.125 C-33.78522364 109.21499282 -40.60140956 105.52816218 -47.5 101.9375 C-48.43851807 101.44846191 -49.37703613 100.95942383 -50.34399414 100.45556641 C-52.56161966 99.30168331 -54.78021282 98.14971766 -57 97 C-56.45276317 93.62537285 -55.9451 91.91765 -54 89 C-53.33613281 89.10699219 -52.67226563 89.21398437 -51.98828125 89.32421875 C-51.10527344 89.44410156 -50.22226562 89.56398438 -49.3125 89.6875 C-48.44238281 89.81511719 -47.57226562 89.94273437 -46.67578125 90.07421875 C-43.26407009 89.97958735 -41.78225713 88.94445809 -39 87 C-37.31008686 85.0202536 -37.31008686 85.0202536 -35.94140625 82.703125 C-35.39774414 81.8383252 -34.85408203 80.97352539 -34.29394531 80.08251953 C-33.72256836 79.14778809 -33.15119141 78.21305664 -32.5625 77.25 C-31.95631836 76.27788574 -31.35013672 75.30577148 -30.72558594 74.30419922 C-28.80305288 71.21119154 -26.8989438 68.10753888 -25 65 C-24.38817871 64.0006543 -23.77635742 63.00130859 -23.14599609 61.97167969 C-20.17779492 57.11722684 -17.22283253 52.25498041 -14.27734375 47.38671875 C-10.9509489 41.8991894 -7.55562951 36.45657969 -4.10644531 31.04541016 C0.88344261 23.41251143 0.88344261 23.41251143 2.1875 14.625 C2.16042969 13.75101563 2.13335938 12.87703125 2.10546875 11.9765625 C2.05326172 10.99816406 2.05326172 10.99816406 2 10 C0.68 9.34 -0.64 8.68 -2 8 C-2 4.23312136 -1.76462683 3.08809695 0 0 Z " fill="#0C6490" transform="translate(700,142)"/>
<path d="M0 0 C4.07239906 6.41711367 4.07239906 6.41711367 3.76074219 8.92626953 C2.82198714 11.48525071 1.7290476 12.41127296 -0.39453125 14.1015625 C-1.44942749 14.95403564 -1.44942749 14.95403564 -2.52563477 15.82373047 C-3.28030029 16.41814941 -4.03496582 17.01256836 -4.8125 17.625 C-6.35964979 18.86945012 -7.90652286 20.11424433 -9.453125 21.359375 C-10.22076172 21.97232422 -10.98839844 22.58527344 -11.77929688 23.21679688 C-14.90790251 25.72903693 -17.98811791 28.29691578 -21.0625 30.875 C-22.02285156 31.67679688 -22.98320312 32.47859375 -23.97265625 33.3046875 C-24.64167969 33.86414063 -25.31070313 34.42359375 -26 35 C-25.34628418 34.93941406 -24.69256836 34.87882813 -24.01904297 34.81640625 C0.00380161 32.61983878 0.00380161 32.61983878 12 33 C12.89434157 34.40453643 13.76493192 35.82421869 14.625 37.25 C15.11226563 38.03890625 15.59953125 38.8278125 16.1015625 39.640625 C17 42 17 42 16.30615234 43.94921875 C14.79359367 46.32407723 13.2893414 47.53969722 11 49.171875 C10.19933105 49.7503418 9.39866211 50.32880859 8.57373047 50.92480469 C7.72439941 51.52711914 6.87506836 52.12943359 6 52.75 C4.27241341 53.99858426 2.54584205 55.24857448 0.8203125 56.5 C-0.01081055 57.10070312 -0.84193359 57.70140625 -1.69824219 58.3203125 C-9.33278699 63.29074569 -9.33278699 63.29074569 -15 70 C-13.865625 69.79503906 -12.73125 69.59007812 -11.5625 69.37890625 C-10.04168618 69.1066618 -8.52085174 68.83453255 -7 68.5625 C-6.25621094 68.42779297 -5.51242188 68.29308594 -4.74609375 68.15429688 C3.58934728 66.66841391 11.53580084 65.85298803 20 65.9375 C20.87011719 65.94201172 21.74023438 65.94652344 22.63671875 65.95117188 C24.75784293 65.9628264 26.8789311 65.98075643 29 66 C29.67154933 67.28913487 30.33708859 68.58140204 31 69.875 C31.37125 70.59429688 31.7425 71.31359375 32.125 72.0546875 C33 74 33 74 33 76 C26.36074647 77.44496535 19.80370392 78.45709107 13.0390625 79.0703125 C12.12724213 79.15626678 11.21542175 79.24222107 10.27597046 79.33078003 C8.36195707 79.50975255 6.44769495 79.68608334 4.53320312 79.85986328 C1.638508 80.1237685 -1.25492892 80.3992031 -4.1484375 80.67578125 C-26.17257496 82.73896004 -26.17257496 82.73896004 -32 82 C-34.27795022 79.72204978 -35.05219877 78.06212707 -36 75 C-35.57229818 71.46620137 -34.34298248 70.0826674 -31.625 67.875 C-28.20360115 65.02179775 -24.89622075 62.08744987 -21.625 59.0625 C-16.59541124 54.46904341 -11.37852259 50.17681364 -6 46 C-9.2917057 46.31208968 -12.58335702 46.62474956 -15.875 46.9375 C-17.25171875 47.06801758 -17.25171875 47.06801758 -18.65625 47.20117188 C-24.01546413 47.71067463 -29.3725966 48.23536099 -34.72753906 48.78808594 C-44.78936276 49.72638235 -44.78936276 49.72638235 -48.5 47.5 C-50.61274178 43.9787637 -50.72761519 41.08577216 -51 37 C-50.36835938 36.63390625 -49.73671875 36.2678125 -49.0859375 35.890625 C-41.20776577 31.12285537 -34.51570443 25.45510372 -27.61328125 19.39990234 C-23.84878339 16.13331174 -19.92423602 13.07062577 -16 10 C-14.86707559 9.09649447 -13.73427068 8.1928391 -12.6015625 7.2890625 C-11.42231378 6.35881849 -10.24263012 5.42912558 -9.0625 4.5 C-8.50618896 4.05382324 -7.94987793 3.60764648 -7.37670898 3.14794922 C-3.341813 0 -3.341813 0 0 0 Z " fill="#106592" transform="translate(210,560)"/>
<path d="M0 0 C4.18240137 0.58809811 7.08625452 2.00496595 10.69140625 4.17578125 C11.79250732 4.83384766 12.8936084 5.49191406 14.02807617 6.16992188 C15.20631055 6.88396097 16.38445 7.59815675 17.5625 8.3125 C18.76823842 9.03646997 19.97437788 9.75977241 21.1809082 10.48242188 C23.61751113 11.94341835 26.05158122 13.40849322 28.48339844 14.87744141 C31.72644521 16.83628779 34.97547494 18.78499008 38.2265625 20.73046875 C42.8215618 23.48061191 47.41218273 26.23789337 52 29 C51.54438436 33.89786808 50.43888461 36.47277107 47 40 C44.35668945 40.86865234 44.35668945 40.86865234 41.30078125 41.2109375 C40.14916504 41.34854492 38.99754883 41.48615234 37.81103516 41.62792969 C36.55339355 41.75071289 35.29575195 41.87349609 34 42 C32.64757761 42.1418138 31.2952023 42.28407716 29.94287109 42.42675781 C25.69417918 42.86224486 21.441547 43.24609313 17.1875 43.625 C15.70504459 43.76004904 14.22262244 43.89546371 12.74023438 44.03125 C9.1605283 44.35836605 5.58040289 44.68058978 2 45 C2.55872803 45.33209473 3.11745605 45.66418945 3.69311523 46.00634766 C6.27603473 47.54346333 8.85677002 49.08421132 11.4375 50.625 C12.31599609 51.14707031 13.19449219 51.66914062 14.09960938 52.20703125 C19.84827803 55.64350476 25.46508299 59.22884609 31 63 C30.11236977 67.7973478 28.52513204 70.84575052 26 75 C21.54082 73.67329838 17.88007559 71.9072539 13.921875 69.47265625 C13.35682251 69.12764069 12.79177002 68.78262512 12.20959473 68.42715454 C10.38591354 67.31168724 8.56772239 66.18764707 6.75 65.0625 C4.86716927 63.90317746 2.98361089 62.74504332 1.10003662 61.58692932 C-0.1522201 60.81662466 -1.40397189 60.04549854 -2.6552124 59.27354431 C-6.35855401 56.99246097 -10.08533278 54.76007949 -13.84375 52.5703125 C-14.68518555 52.07523193 -15.52662109 51.58015137 -16.39355469 51.07006836 C-17.92932538 50.16900439 -19.47142472 49.27861509 -21.02050781 48.40063477 C-23.046875 47.19921875 -23.046875 47.19921875 -26 45 C-26 40.99791406 -25.57437476 38.77046888 -23.140625 35.56933594 C-18.06644633 31.84935185 -10.59667445 32.13391513 -4.5 31.625 C-2.99450136 31.47555235 -1.48928498 31.32323205 0.015625 31.16796875 C8.66353908 30.29652292 17.3314307 29.6286802 26 29 C15.77194312 22.4796941 5.55477292 15.98314473 -5 10 C-4.17707746 6.01532244 -2.33946269 3.32052768 0 0 Z " fill="#106791" transform="translate(796,623)"/>
<path d="M0 0 C6.91535871 1.33800219 13.13876482 3.39592122 19.625 6.125 C20.52734375 6.47820313 21.4296875 6.83140625 22.359375 7.1953125 C29.72078392 10.28581653 34.38248083 14.56159793 38.4375 21.4375 C40.09523154 28.98938812 39.18112567 35.42237547 35 42 C32.64064558 44.52787974 30.10903591 46.44548204 27 48 C25.02 48 23.04 48 21 48 C22.32 56.58 23.64 65.16 25 74 C14 71 14 71 11 69 C10.32739258 66.70922852 10.32739258 66.70922852 9.89453125 63.87890625 C9.71470703 62.86119141 9.53488281 61.84347656 9.34960938 60.79492188 C8.99267981 58.64685484 8.65399632 56.49567316 8.33398438 54.34179688 C7.53026612 48.71659258 7.53026612 48.71659258 4.04052734 44.60888672 C1.60188683 43.62745682 1.60188683 43.62745682 -2 43 C-2.19634033 43.57032959 -2.39268066 44.14065918 -2.5949707 44.72827148 C-3.48873152 47.30239719 -4.40033027 49.86984317 -5.3125 52.4375 C-5.7755957 53.78424805 -5.7755957 53.78424805 -6.24804688 55.15820312 C-6.55419922 56.01220703 -6.86035156 56.86621094 -7.17578125 57.74609375 C-7.45333252 58.53685303 -7.73088379 59.3276123 -8.0168457 60.14233398 C-9 62 -9 62 -12 63 C-14.26171875 62.00390625 -14.26171875 62.00390625 -16.6875 60.5625 C-17.49574219 60.08941406 -18.30398438 59.61632812 -19.13671875 59.12890625 C-19.75160156 58.75636719 -20.36648438 58.38382813 -21 58 C-20.39891233 54.6587437 -19.58008358 51.59985146 -18.37353516 48.4284668 C-18.04294098 47.55373215 -17.7123468 46.6789975 -17.37173462 45.77775574 C-17.01445282 44.84433853 -16.65717102 43.91092133 -16.2890625 42.94921875 C-15.9202597 41.97644485 -15.55145691 41.00367096 -15.17147827 40.00141907 C-13.99297295 36.8953769 -12.80909423 33.79141529 -11.625 30.6875 C-10.83557641 28.61016323 -10.04651002 26.53269067 -9.2578125 24.45507812 C-7.80252731 20.6224359 -6.34494581 16.79068263 -4.88525391 12.9597168 C-3.2425608 8.64508638 -1.61693729 4.32434515 0 0 Z M7 15 C6.13237686 17.24561282 5.2807897 19.49526255 4.4375 21.75 C4.19064453 22.38421875 3.94378906 23.0184375 3.68945312 23.671875 C2.72791169 26.27209971 1.98711262 28.52316703 2.0625 31.3125 C3.82107975 34.47794356 7.03949136 35.06144753 10.29296875 36.234375 C14.21467741 37.34354513 16.94065537 37.5599096 21 37 C23.67752485 35.3522924 24.63064823 34.09209565 25.6328125 31.12890625 C26.08378461 28.96014036 26.23791599 27.20292586 26 25 C22.57926737 19.92787921 16.62561567 17.1496255 11 15 C9.68 15 8.36 15 7 15 Z " fill="#126692" transform="translate(380,759)"/>
<path d="M0 0 C3.95704185 1.49580949 5.32994077 3.63943557 7.46875 7.21484375 C8.11706787 8.28516846 8.76538574 9.35549316 9.43334961 10.45825195 C10.122458 11.61786766 10.81133687 12.77761981 11.5 13.9375 C12.56680987 15.7112169 13.63687471 17.48294039 14.70726013 19.25450134 C15.42698149 20.44606958 16.14553526 21.63834382 16.8629303 22.83131409 C20.58976071 29.01644694 24.48910141 35.08994283 28.45703125 41.12280273 C30.77426152 44.72015544 32.59652812 47.63048542 33 52 C31.73461631 52.84158536 30.46246221 53.67299748 29.1875 54.5 C28.47980469 54.9640625 27.77210938 55.428125 27.04296875 55.90625 C25 57 25 57 22 57 C20.55786133 55.1640625 20.55786133 55.1640625 19.08203125 52.625 C18.55029297 51.72265625 18.01855469 50.8203125 17.47070312 49.890625 C16.92349609 48.93671875 16.37628906 47.9828125 15.8125 47 C14.97428711 45.56914063 14.97428711 45.56914063 14.11914062 44.109375 C12.7360847 41.74517684 11.36365718 39.37542321 10 37 C2.57858972 41.20060161 -4.8150529 45.40163385 -12 50 C-10.7527532 52.20992759 -9.50229753 54.41793663 -8.25 56.625 C-7.90195312 57.24246094 -7.55390625 57.85992188 -7.1953125 58.49609375 C-5.46673633 61.53710738 -3.73206146 64.3695394 -1.671875 67.2109375 C0 70 0 70 -0.02734375 72.203125 C-1.2275395 74.4203541 -2.45981153 75.37369482 -4.5625 76.75 C-5.20316406 77.17796875 -5.84382812 77.6059375 -6.50390625 78.046875 C-6.99761719 78.36140625 -7.49132812 78.6759375 -8 79 C-11.91508227 77.50925302 -13.28196153 75.43695488 -15.3984375 71.890625 C-16.036604 70.83568848 -16.67477051 69.78075195 -17.33227539 68.69384766 C-18.01345456 67.54605921 -18.69435678 66.39810635 -19.375 65.25 C-20.79395742 62.88547027 -22.21914178 60.52471892 -23.64453125 58.1640625 C-24.00427536 57.56608856 -24.36401947 56.96811462 -24.73466492 56.35202026 C-27.1471061 52.3576123 -29.64238116 48.42778944 -32.19921875 44.5234375 C-32.85035645 43.52666992 -33.50149414 42.52990234 -34.17236328 41.50292969 C-35.41260201 39.61453726 -36.6620026 37.73212378 -37.92138672 35.85644531 C-38.47455566 35.00920898 -39.02772461 34.16197266 -39.59765625 33.2890625 C-40.08758057 32.55381348 -40.57750488 31.81856445 -41.08227539 31.06103516 C-42 29 -42 29 -41.74536133 26.81103516 C-40.79032246 24.49053784 -39.81991787 23.91691836 -37.625 22.75 C-37.01914062 22.41484375 -36.41328125 22.0796875 -35.7890625 21.734375 C-34 21 -34 21 -31 21 C-29.6496582 22.65234375 -29.6496582 22.65234375 -28.30078125 24.9375 C-27.81416016 25.74960937 -27.32753906 26.56171875 -26.82617188 27.3984375 C-26.32666016 28.25695312 -25.82714844 29.11546875 -25.3125 30 C-24.80138672 30.85851562 -24.29027344 31.71703125 -23.76367188 32.6015625 C-22.49917422 34.72875481 -21.24524658 36.86149991 -20 39 C-14.56316666 37.50787224 -10.30936185 34.8990817 -5.625 31.875 C-4.52091797 31.17310547 -4.52091797 31.17310547 -3.39453125 30.45703125 C-1.59269922 29.31041087 0.20416431 28.15598924 2 27 C0.45197548 21.54897748 -2.23348051 17.27291211 -5.4296875 12.6796875 C-6.515625 11.0234375 -6.515625 11.0234375 -8 8 C-6.9170819 3.71283107 -3.63261876 2.21115925 0 0 Z " fill="#116893" transform="translate(710,728)"/>
<path d="M0 0 C1.80078125 1.453125 1.80078125 1.453125 3.3125 3.25 C3.82425781 3.83265625 4.33601563 4.4153125 4.86328125 5.015625 C6.33915072 7.59205692 6.27708416 9.05114799 6 12 C4.79760742 14.39331055 4.79760742 14.39331055 3.10546875 16.88671875 C2.17444336 18.28132324 2.17444336 18.28132324 1.22460938 19.70410156 C0.55236328 20.68862305 -0.11988281 21.67314453 -0.8125 22.6875 C-2.19612565 24.75770242 -3.57761521 26.82933401 -4.95703125 28.90234375 C-5.64361816 29.93085449 -6.33020508 30.95936523 -7.03759766 32.01904297 C-9.79209737 36.2032233 -12.41209737 40.46138299 -15 44.75 C-15.87096942 46.19017937 -16.74205811 47.63028661 -17.61328125 49.0703125 C-18.01498535 49.73450195 -18.41668945 50.39869141 -18.83056641 51.08300781 C-21.48397079 55.43259679 -24.23728998 59.71921382 -27 64 C-30.49044225 63.37964303 -31.10839985 62.89160015 -33.8125 60.1875 C-36 57 -36 57 -35.828125 55.09765625 C-34.82392985 52.55401098 -33.49179105 50.49876152 -31.9375 48.25 C-31.38964844 47.45078125 -30.84179688 46.6515625 -30.27734375 45.828125 C-29.85582031 45.22484375 -29.43429688 44.6215625 -29 44 C-30.28393968 41.2682214 -31.69081215 38.94430645 -33.56640625 36.58203125 C-34.05173828 35.96779297 -34.53707031 35.35355469 -35.03710938 34.72070312 C-35.54048828 34.09099609 -36.04386719 33.46128906 -36.5625 32.8125 C-37.06974609 32.17119141 -37.57699219 31.52988281 -38.09960938 30.86914062 C-40.43918865 27.83827773 -40.43918865 27.83827773 -43 25 C-45.68229229 25.28234656 -48.33156506 25.62010274 -51 26 C-52.49964602 26.19031041 -53.99963262 26.37796284 -55.5 26.5625 C-56.655 26.706875 -57.81 26.85125 -59 27 C-59.84198307 25.90241493 -60.67330671 24.79664683 -61.5 23.6875 C-62.19609375 22.76517578 -62.19609375 22.76517578 -62.90625 21.82421875 C-64 20 -64 20 -64 17 C-51.0292321 12.77259733 -38.00360195 8.71608545 -24.9468689 4.76260376 C-23.27622666 4.25489122 -21.60680033 3.74316008 -19.93862915 3.22738647 C-17.56516327 2.49464951 -15.18763259 1.7769028 -12.80859375 1.0625 C-12.09478546 0.83891312 -11.38097717 0.61532623 -10.64553833 0.38496399 C-6.75074195 -0.76552785 -3.89333932 -1.31895706 0 0 Z M-11 13 C-17.27 15.31 -23.54 17.62 -30 20 C-28.43108518 23.13782964 -26.97689907 25.50839252 -24.875 28.25 C-24.33617187 28.95640625 -23.79734375 29.6628125 -23.2421875 30.390625 C-22.83226562 30.92171875 -22.42234375 31.4528125 -22 32 C-19.00767927 28.36743046 -16.34013291 24.61586825 -13.75 20.6875 C-12.69039062 19.08455078 -12.69039062 19.08455078 -11.609375 17.44921875 C-11.07828125 16.64097656 -10.5471875 15.83273437 -10 15 C-10.33 14.34 -10.66 13.68 -11 13 Z " fill="#106692" transform="translate(259,657)"/>
<path d="M0 0 C1.17661508 3.67692213 1.14475933 7.1638778 1 11 C-0.64980784 12.64980784 -2.7188706 12.44122297 -4.98828125 12.71875 C-6.00470703 12.84636719 -7.02113281 12.97398437 -8.06835938 13.10546875 C-9.67420898 13.30076172 -9.67420898 13.30076172 -11.3125 13.5 C-13.41302779 13.75825113 -15.51330063 14.0185866 -17.61328125 14.28125 C-18.54954346 14.39533203 -19.48580566 14.50941406 -20.45043945 14.62695312 C-23.2633154 14.99533093 -23.2633154 14.99533093 -27 16 C-26.67 20.29 -26.34 24.58 -26 29 C-24.9378125 28.7834375 -23.875625 28.566875 -22.78125 28.34375 C-21.35424472 28.06210422 -19.92715687 27.78087662 -18.5 27.5 C-17.80390625 27.35691406 -17.1078125 27.21382812 -16.390625 27.06640625 C-11.50912797 26.11722627 -6.97281701 25.86559954 -2 26 C-1.505 31.445 -1.505 31.445 -1 37 C-4.08275665 37.50379681 -7.16611856 38.0031773 -10.25 38.5 C-11.12269531 38.64308594 -11.99539063 38.78617188 -12.89453125 38.93359375 C-14.16103516 39.13662109 -14.16103516 39.13662109 -15.453125 39.34375 C-16.22817383 39.46943359 -17.00322266 39.59511719 -17.80175781 39.72460938 C-20 40 -20 40 -24 40 C-23.505 46.93 -23.505 46.93 -23 54 C-21.93523438 53.79503906 -20.87046875 53.59007812 -19.7734375 53.37890625 C-10.49836266 51.64110436 -1.440568 50.43387713 8 50 C8.495 55.445 8.495 55.445 9 61 C4.00208831 61.71829936 -0.99668395 62.43015964 -5.99633789 63.13623047 C-7.69482785 63.37700205 -9.39307547 63.61948995 -11.09106445 63.86376953 C-13.54055103 64.21585179 -15.99086077 64.5616247 -18.44140625 64.90625 C-19.19273331 65.0156189 -19.94406036 65.12498779 -20.71815491 65.2376709 C-25.19383587 65.85974959 -29.48106254 66.104183 -34 66 C-34.67563581 61.00531405 -35.3510819 56.01060249 -36.02636719 51.01586914 C-36.25515872 49.32380514 -36.48399827 47.63174763 -36.71289062 45.93969727 C-36.82310547 45.1249292 -36.93332031 44.31016113 -37.046875 43.47070312 C-37.15678772 42.65856354 -37.26670044 41.84642395 -37.37994385 41.00967407 C-37.60093214 39.37320747 -37.82110395 37.73663041 -38.04046631 36.09994507 C-38.54805589 32.31565883 -39.06370267 28.53325228 -39.61035156 24.75439453 C-39.79307617 23.4651709 -39.97580078 22.17594727 -40.1640625 20.84765625 C-40.32600098 19.73527588 -40.48793945 18.62289551 -40.65478516 17.47680664 C-41.06931524 13.3018965 -41.07127501 9.19090398 -41 5 C-35.6434748 4.28544189 -30.28662025 3.5734253 -24.92944336 2.86376953 C-23.10675918 2.62195674 -21.28416722 2.37944775 -19.46166992 2.13623047 C-16.84317533 1.78690775 -14.2243601 1.44008397 -11.60546875 1.09375 C-10.38188911 0.92969666 -10.38188911 0.92969666 -9.1335907 0.7623291 C-6.06613336 0.35859605 -3.09769761 0 0 0 Z " fill="#146690" transform="translate(580,783)"/>
<path d="M0 0 C4.2149623 1.5358725 7.98862838 3.63068347 11.83203125 5.9140625 C12.46864182 6.28856537 13.10525238 6.66306824 13.76115417 7.04891968 C15.78021148 8.23768767 17.79637914 9.43126006 19.8125 10.625 C21.18666051 11.43521553 22.56100756 12.24511477 23.93554688 13.0546875 C27.29253471 15.03280401 30.64694066 17.01523229 34 19 C33.37432896 23.38577176 32.49790735 26.30744131 30 30 C26.48283007 28.68071914 23.34691482 27.12651609 20.13671875 25.1796875 C19.25048828 24.64472656 18.36425781 24.10976563 17.45117188 23.55859375 C16.53916016 23.00300781 15.62714844 22.44742188 14.6875 21.875 C13.75615234 21.31167969 12.82480469 20.74835937 11.86523438 20.16796875 C9.57478858 18.7819554 7.28647924 17.39254372 5 16 C0.5603092 20.90907514 0.5603092 20.90907514 -1 27 C-0.04738281 27.54269531 0.90523438 28.08539062 1.88671875 28.64453125 C3.15366244 29.36715839 4.42058859 30.08981627 5.6875 30.8125 C6.31333984 31.16892578 6.93917969 31.52535156 7.58398438 31.89257812 C11.08115525 33.8883458 14.55626286 35.91268705 18 38 C16.8905928 41.48670834 15.73662334 44.77484237 14 48 C8.67501327 47.49844814 4.64794605 44.65564273 0.1875 41.9375 C-0.60076172 41.46505859 -1.38902344 40.99261719 -2.20117188 40.50585938 C-4.13812608 39.34368685 -6.07078295 38.17495583 -8 37 C-10.4789559 39.38303499 -12.05722452 41.64725654 -13.6875 44.6875 C-14.12449219 45.49574219 -14.56148438 46.30398438 -15.01171875 47.13671875 C-15.33785156 47.75160156 -15.66398437 48.36648438 -16 49 C-15.27530518 49.27183105 -14.55061035 49.54366211 -13.80395508 49.82373047 C-11.07310273 50.96933313 -8.66648521 52.28613155 -6.13671875 53.8203125 C-5.25048828 54.35527344 -4.36425781 54.89023437 -3.45117188 55.44140625 C-2.53916016 55.99699219 -1.62714844 56.55257812 -0.6875 57.125 C0.24384766 57.68832031 1.17519531 58.25164063 2.13476562 58.83203125 C4.42521142 60.2180446 6.71352076 61.60745628 9 63 C8.27758802 67.11704694 6.97646289 70.30487372 5 74 C1.34408493 72.63908685 -1.8765395 70.98610603 -5.203125 68.953125 C-6.18410156 68.355 -7.16507812 67.756875 -8.17578125 67.140625 C-9.19027344 66.51671875 -10.20476562 65.8928125 -11.25 65.25 C-12.24902344 64.6415625 -13.24804688 64.033125 -14.27734375 63.40625 C-20.27719673 59.73575171 -26.1833233 55.95446382 -32 52 C-31.43951417 48.32186199 -30.50584689 45.82270083 -28.4453125 42.734375 C-27.91824707 41.93499512 -27.39118164 41.13561523 -26.84814453 40.31201172 C-26.27950684 39.46654785 -25.71086914 38.62108398 -25.125 37.75 C-23.93717354 35.95594527 -22.74967918 34.16167062 -21.5625 32.3671875 C-20.6653125 31.01898926 -20.6653125 31.01898926 -19.75 29.64355469 C-17.16953833 25.74550237 -14.64960022 21.80934341 -12.125 17.875 C-8.22075252 11.8172666 -4.2115071 5.85011396 0 0 Z " fill="#136A94" transform="translate(328,729)"/>
<path d="M0 0 C-0.46800711 4.05606165 -0.87953208 7.46588679 -3 11 C-4.093125 10.67 -5.18625 10.34 -6.3125 10 C-12.90011252 8.3764572 -19.26788546 8.23859103 -25.8125 10.0625 C-30.79718299 13.09240535 -33.94655063 16.70156502 -36.375 22 C-37.72716537 28.49039376 -37.34588471 34.2324435 -34 40 C-30.30775557 44.04006456 -26.02972186 47.59540981 -20.484375 48.3359375 C-14.10457399 48.42707751 -9.19212198 47.90829313 -4 44 C-0.87908439 40.94164172 1.58063652 37.62904522 4 34 C7.95820859 34.56545837 10.6659053 35.80902348 14 38 C13.22535494 44.68578273 8.73091042 48.56033181 4 53 C-4.51974364 59.40946868 -13.3548815 62.2282829 -24 61 C-32.21994945 59.1656045 -38.53726032 55.42804308 -44 49 C-49.73789764 39.85779945 -50.82726712 31.71901829 -50 21 C-47.93963951 12.62202815 -42.06123663 5.78335168 -34.9375 1.125 C-24.68963232 -4.74781648 -10.34050838 -6.60643591 0 0 Z " fill="#136793" transform="translate(655,770)"/>
<path d="M0 0 C0.99 3.63 1.98 7.26 3 11 C1.5975 11.70125 0.195 12.4025 -1.25 13.125 C-6.67115939 16.1253901 -9.0220086 19.0660258 -11 25 C-11.36823488 30.61558189 -11.23891406 34.19386946 -8 39 C-3.16211923 44.10665192 1.27388763 46.6549896 8.375 47.3125 C14.69476496 46.76769268 19.16302109 45.33691035 23.4375 40.5 C27.93121352 34.91653033 27.38958683 28.87666052 27 22 C26.15697007 18.44457748 26.15697007 18.44457748 25 16 C31.19767442 12.06686047 31.19767442 12.06686047 34.25 11.8125 C37.75918618 14.19373348 38.58324168 18.52240231 39.6875 22.4375 C40.83221676 31.82417742 39.5053631 39.93660721 33.9375 47.75 C29.42105713 53.16973144 23.08591136 57.79965436 16 59 C4.74245795 59.80789419 -4.30469019 59.06675258 -13.3125 51.75 C-20.1817294 45.22770138 -23.80738859 38.08130181 -24.06640625 28.55859375 C-23.58972384 19.32828897 -19.58818557 11.69891611 -12.83203125 5.47265625 C-8.71707212 2.16489593 -5.447337 0 0 0 Z " fill="#156993" transform="translate(833,562)"/>
<path d="M0 0 C2.71062519 1.07688357 4.13885848 2.5375894 6.16699219 4.63134766 C6.93011719 5.40865234 7.69324219 6.18595703 8.47949219 6.98681641 C9.26839844 7.80537109 10.05730469 8.62392578 10.87011719 9.46728516 C16.43015514 15.18485752 22.04956564 20.66830738 28.12011719 25.84228516 C29.6594597 27.19653169 31.18532502 28.566687 32.68261719 29.96728516 C33.36453125 30.58861328 34.04644531 31.20994141 34.74902344 31.85009766 C36.12011719 33.84228516 36.12011719 33.84228516 35.96386719 36.40869141 C34.90808237 39.45384854 33.24338183 41.44505088 31.12011719 43.84228516 C26.83336806 42.00510696 24.2713401 39.0654595 21.12011719 35.71728516 C19.1922467 33.90990658 17.53337457 32.87653832 15.12011719 31.84228516 C10.29584108 36.56810665 5.60735491 41.33418923 1.21386719 46.46337891 C-2.21858985 50.3633161 -5.78882215 54.13648491 -9.34960938 57.91918945 C-12.03533086 60.78766476 -14.61451464 63.61971917 -16.87988281 66.84228516 C-22.28038017 66.52460884 -24.40325346 63.64232189 -27.87988281 59.84228516 C-26.29048856 55.91014214 -23.7164578 53.51208169 -20.69238281 50.59228516 C-16.92991136 46.91181784 -13.3314195 43.17046821 -9.91503906 39.16650391 C-5.04240192 33.60178395 0.07185734 28.2473393 5.12011719 22.84228516 C3.74815858 19.74519048 2.18219218 17.68357991 -0.25488281 15.34228516 C-1.18107422 14.44316406 -1.18107422 14.44316406 -2.12597656 13.52587891 C-2.70476562 12.97029297 -3.28355469 12.41470703 -3.87988281 11.84228516 C-5.21321615 10.50895182 -6.54654948 9.17561849 -7.87988281 7.84228516 C-6.40365838 4.39776147 -4.26882489 -0.35813778 0 0 Z " fill="#116596" transform="translate(279.8798828125,685.15771484375)"/>
<path d="M0 0 C6.61989587 -0.06182004 13.12941382 0.13044704 19.7265625 0.65625 C20.60025482 0.72283813 21.47394714 0.78942627 22.37411499 0.85803223 C25.12469668 1.06847507 27.87483869 1.2841401 30.625 1.5 C32.50648366 1.6448791 34.38799391 1.78941339 36.26953125 1.93359375 C40.84667068 2.28508347 45.42342394 2.64125241 50 3 C51.27109175 7.66066975 50.75467305 9.71728868 50 15 C43.73 14.67 37.46 14.34 31 14 C30.896875 16.330625 30.79375 18.66125 30.6875 21.0625 C29.98067632 35.07706028 28.41486692 49.04299665 27 63 C25.20841511 63.02696365 23.41671527 63.04637917 21.625 63.0625 C20.62726563 63.07410156 19.62953125 63.08570313 18.6015625 63.09765625 C16 63 16 63 14 62 C13.71622848 51.51621872 14.6024088 41.18173669 15.5 30.75 C15.64498563 29.02217348 15.78952018 27.29430906 15.93359375 25.56640625 C16.28304108 21.37705492 16.64170484 17.18864098 17 13 C11.39 12.34 5.78 11.68 0 11 C0 7.37 0 3.74 0 0 Z " fill="#126490" transform="translate(470,786)"/>
<path d="M0 0 C3.89286081 4.12879176 5.26581768 6.85625751 5.5 12.5625 C5.32457193 17.99346064 4.45434763 20.92594785 1.0625 25.1875 C-3.92709667 29.15881164 -8.01476374 29.82595459 -14.3515625 29.57421875 C-19.34408217 28.82760327 -21.97632944 26.2525809 -25.25 22.625 C-28.39065182 18.08850293 -28.60646279 13.53920231 -27.9375 8.1875 C-26.1875 4.875 -26.1875 4.875 -23.9375 2.1875 C-23.339375 1.445 -22.74125 0.7025 -22.125 -0.0625 C-15.41262464 -5.43240028 -6.95678871 -4.29248665 0 0 Z " fill="#0D6390" transform="translate(862.9375,481.8125)"/>
<path d="M0 0 C4.48781308 4.89579609 5.64118822 9.2754096 5.40625 15.78515625 C4.64983045 21.20902828 2.31308757 24.25463438 -2 27.6875 C-6.79131306 30.04202938 -11.74530238 30.22586498 -16.9375 29.25 C-21.6675544 27.05196158 -24.32916177 24.29558133 -26.9375 19.8125 C-28.35806247 14.75174619 -28.60499733 11.10415925 -26.8125 6.125 C-23.99761229 1.80883885 -20.73527399 -0.81025451 -16.1875 -3.1875 C-10.36975382 -4.19441761 -5.05325941 -3.01045241 0 0 Z " fill="#0D6390" transform="translate(186.9375,481.75)"/>
<path d="M0 0 C4.16875613 0.52596456 6.26819527 2.80506467 9.25 5.625 C10.14203125 6.46289062 11.0340625 7.30078125 11.953125 8.1640625 C12.43209229 8.61499268 12.91105957 9.06592285 13.40454102 9.53051758 C15.19215115 11.176979 17.01962292 12.77080791 18.85546875 14.36328125 C23.72664232 18.60319873 28.40180477 23.04035592 33.08789062 27.48242188 C37.29271498 31.45023961 41.58155222 35.27103692 46 39 C45.37964303 42.49044225 44.89160015 43.10839985 42.1875 45.8125 C39 48 39 48 37.03125 47.83520508 C34.61554462 46.84192045 33.19878484 45.6301783 31.3125 43.82421875 C30.27343506 42.83820679 30.27343506 42.83820679 29.21337891 41.83227539 C28.48296387 41.12449951 27.75254883 40.41672363 27 39.6875 C26.24251465 38.9648999 25.4850293 38.2422998 24.70458984 37.49780273 C19.78526627 32.78627189 14.97532079 27.97556734 10.20410156 23.11499023 C5.45470934 18.33659789 0.31066785 14.13981194 -5 10 C-4.29795092 5.60295579 -2.96828429 3.35128872 0 0 Z " fill="#116697" transform="translate(755,684)"/>
<path d="M0 0 C0.66 0.33 1.32 0.66 2 1 C0.42100123 2.77486694 -1.16292769 4.54487592 -2.75 6.3125 C-3.1934375 6.81201172 -3.636875 7.31152344 -4.09375 7.82617188 C-6.53881116 10.5409089 -8.90828166 13.03070984 -12 15 C-12.66 15 -13.32 15 -14 15 C-12.40153531 10.75091664 -9.1869608 8.17774261 -5.875 5.25 C-5.31167969 4.74339844 -4.74835937 4.23679687 -4.16796875 3.71484375 C-2.78348469 2.47115468 -1.39238512 1.23483695 0 0 Z " fill="#3A85AB" transform="translate(814,802)"/>
<path d="M0 0 C0.33 0.66 0.66 1.32 1 2 C0.34 2 -0.32 2 -1 2 C-0.34 3.32 0.32 4.64 1 6 C1.886875 5.690625 2.77375 5.38125 3.6875 5.0625 C6.46709155 4.1709329 9.13136375 3.50622993 12 3 C8.86665115 5.53078176 5.75469813 7.51376532 2 9 C-0.3125 8.5 -0.3125 8.5 -2 7 C-2.75 4.375 -2.75 4.375 -3 2 C-2.01 1.34 -1.02 0.68 0 0 Z " fill="#258CB0" transform="translate(349,243)"/>
<path d="M0 0 C0.99 0.33 1.98 0.66 3 1 C2.04578192 2.14926266 1.08647955 3.29430541 0.125 4.4375 C-0.40867187 5.07558594 -0.94234375 5.71367187 -1.4921875 6.37109375 C-3 8 -3 8 -5 9 C-5.66 8.34 -6.32 7.68 -7 7 C-4.69 4.69 -2.38 2.38 0 0 Z " fill="#4782A5" transform="translate(367,327)"/>
<path d="M0 0 C0 0.99 0 1.98 0 3 C-0.66 3.66 -1.32 4.32 -2 5 C-2.99 5 -3.98 5 -5 5 C-5.28875 5.639375 -5.5775 6.27875 -5.875 6.9375 C-7 9 -7 9 -9 10 C-9.66 9.34 -10.32 8.68 -11 8 C-7.37 5.36 -3.74 2.72 0 0 Z " fill="#3181AA" transform="translate(789,824)"/>
<path d="M0 0 C-0.33 0.99 -0.66 1.98 -1 3 C-1.66 3 -2.32 3 -3 3 C-3.33 3.66 -3.66 4.32 -4 5 C-4.99 5 -5.98 5 -7 5 C-6.67 3.35 -6.34 1.7 -6 0 C-3 -1 -3 -1 0 0 Z " fill="#2E74A1" transform="translate(778,347)"/>
<path d="M0 0 C0 4.09089094 -1.69866948 5.44918487 -4.33203125 8.4140625 C-6.36890116 10.35075848 -8.29054445 11.28279118 -11 12 C-7.49102731 7.81576108 -3.91939465 3.80411834 0 0 Z " fill="#789EB8" transform="translate(776,230)"/>
<path d="M0 0 C0.33 0.66 0.66 1.32 1 2 C-0.98 4.31 -2.96 6.62 -5 9 C-5.99 8.67 -6.98 8.34 -8 8 C-5.36 5.36 -2.72 2.72 0 0 Z " fill="#227DB2" transform="translate(263,732)"/>
<path d="M0 0 C3.25 -0.375 3.25 -0.375 6 0 C4.59794495 2.80411009 2.73272707 3.53830878 0 5 C-2.3125 5.6875 -2.3125 5.6875 -4 6 C-2.375 3 -2.375 3 0 0 Z " fill="#2A72A0" transform="translate(775,657)"/>
<path d="M0 0 C0.33 0.66 0.66 1.32 1 2 C-1.31 4.64 -3.62 7.28 -6 10 C-6.33 9.01 -6.66 8.02 -7 7 C-4.69 4.69 -2.38 2.38 0 0 Z " fill="#016DAE" transform="translate(751,255)"/>
<path d="M0 0 C0.33 0.66 0.66 1.32 1 2 C-0.98 4.31 -2.96 6.62 -5 9 C-5.99 8.67 -6.98 8.34 -8 8 C-5.36 5.36 -2.72 2.72 0 0 Z " fill="#6594B1" transform="translate(785,221)"/>
<path d="M0 0 C0.66 0.33 1.32 0.66 2 1 C0.71937515 2.7074998 -0.61767557 4.37373596 -2 6 C-2.66 6 -3.32 6 -4 6 C-4.33 6.66 -4.66 7.32 -5 8 C-5.3125 5.6875 -5.3125 5.6875 -5 3 C-2.625 1.125 -2.625 1.125 0 0 Z " fill="#3F84A5" transform="translate(164,594)"/>
<path d="M0 0 C0 4.31618166 -2.13270348 5.92789659 -5 9 C-5.66 9 -6.32 9 -7 9 C-5.44499019 5.18315774 -2.96404505 2.80804268 0 0 Z " fill="#0192B0" transform="translate(829,788)"/>
<path d="M0 0 C0.33 0.99 0.66 1.98 1 3 C-0.65 4.65 -2.3 6.3 -4 8 C-4.99 7.67 -5.98 7.34 -7 7 C-4.69 4.69 -2.38 2.38 0 0 Z " fill="#6392B0" transform="translate(764,242)"/>
<path d="M0 0 C0.66 0.33 1.32 0.66 2 1 C-1.32307692 5.8 -1.32307692 5.8 -4.75 6.8125 C-5.4925 6.874375 -6.235 6.93625 -7 7 C-4.66666667 4.66666667 -2.33333333 2.33333333 0 0 Z " fill="#4590AE" transform="translate(200,565)"/>
<path d="M0 0 C0.33 0.66 0.66 1.32 1 2 C-0.65 3.98 -2.3 5.96 -4 8 C-4.99 7.67 -5.98 7.34 -7 7 C-4.69 4.69 -2.38 2.38 0 0 Z " fill="#4196B2" transform="translate(272,260)"/>
<path d="M0 0 C0.33 0.99 0.66 1.98 1 3 C-1.97 5.475 -1.97 5.475 -5 8 C-5.66 7.67 -6.32 7.34 -7 7 C-4.69 4.69 -2.38 2.38 0 0 Z " fill="#277CB3" transform="translate(179,170)"/>
<path d="M0 0 C0.33 0.99 0.66 1.98 1 3 C-1.97 5.475 -1.97 5.475 -5 8 C-5.66 7.67 -6.32 7.34 -7 7 C-4.69 4.69 -2.38 2.38 0 0 Z " fill="#0132B6" transform="translate(190,159)"/>
<path d="M0 0 C0.66 0.33 1.32 0.66 2 1 C-1.12621626 4.39417765 -3.56541027 6.6062718 -8 8 C-5.33333333 5.33333333 -2.66666667 2.66666667 0 0 Z " fill="#518BB3" transform="translate(216,135)"/>
<path d="M0 0 C4.75 0.75 4.75 0.75 7 3 C5.02 3 3.04 3 1 3 C0.67 3.66 0.34 4.32 0 5 C-0.66 5 -1.32 5 -2 5 C-1.34 3.35 -0.68 1.7 0 0 Z " fill="#3F8CAA" transform="translate(659,804)"/>
<path d="M0 0 C0.99 0.33 1.98 0.66 3 1 C2.67 1.66 2.34 2.32 2 3 C1.34 2.67 0.68 2.34 0 2 C0 2.66 0 3.32 0 4 C-1.98 4.33 -3.96 4.66 -6 5 C-2.25 1.125 -2.25 1.125 0 0 Z " fill="#3B85B0" transform="translate(774,186)"/>
<path d="M0 0 C0.99 0.33 1.98 0.66 3 1 C3 2.65 3 4.3 3 6 C1.68 5.67 0.36 5.34 -1 5 C-0.67 3.35 -0.34 1.7 0 0 Z " fill="#2F6B9F" transform="translate(751,689)"/>
<path d="M0 0 C1.32 0.33 2.64 0.66 4 1 C4.33 2.65 4.66 4.3 5 6 C4.01 6.495 4.01 6.495 3 7 C2.01 4.69 1.02 2.38 0 0 Z " fill="#3272AD" transform="translate(282,299)"/>
<path d="M0 0 C3.36720387 1.39332574 4.9859524 2.9789286 7 6 C4 6 4 6 1.8125 4.125 C0 2 0 2 0 0 Z " fill="#5A8CAC" transform="translate(828,148)"/>
<path d="M0 0 C0.33 0 0.66 0 1 0 C1.33 2.64 1.66 5.28 2 8 C0.35 7.67 -1.3 7.34 -3 7 C-3 6.34 -3 5.68 -3 5 C-2.34 4.67 -1.68 4.34 -1 4 C-0.34786708 1.97536745 -0.34786708 1.97536745 0 0 Z " fill="#6896B1" transform="translate(403,825)"/>
</svg>
